<svg width="24" height="25" viewBox="0 0 24 25" fill="none" xmlns="http://www.w3.org/2000/svg">
<g clip-path="url(#clip0_3361_977)">
<path d="M11.4949 15.1479L7.35714 19.2857L8.82688 20.6709C9.50187 21.3459 9.02384 22.5 8.06929 22.5H3.06929C2.47754 22.5 2 22.0203 2 21.4286V16.4286C2 15.474 3.15192 14.996 3.82688 15.6709L5.21429 17.1429L9.35205 13.0051C9.63098 12.7262 10.0833 12.7262 10.3622 13.0051L11.4949 14.1378C11.7739 14.4167 11.7739 14.869 11.4949 15.1479ZM12.5051 9.85205L16.6429 5.71429L15.1731 4.32906C14.4981 3.65406 14.9762 2.5 15.9307 2.5H20.9307C21.5225 2.5 22 2.97969 22 3.57143V8.57143C22 9.52598 20.8481 10.004 20.1731 9.32906L18.7857 7.85714L14.6479 11.9949C14.369 12.2738 13.9167 12.2738 13.6378 11.9949L12.5051 10.8622C12.2261 10.5833 12.2261 10.131 12.5051 9.85205Z" fill="#444F55"/>
</g>
<defs>
<clipPath id="clip0_3361_977">
<rect width="20" height="20" fill="white" transform="translate(2 2.5)"/>
</clipPath>
</defs>
</svg>
