<?xml version="1.0" encoding="UTF-8"?>
<!DOCTYPE svg PUBLIC "-//W3C//DTD SVG 1.1//EN" "http://www.w3.org/Graphics/SVG/1.1/DTD/svg11.dtd">
<svg xmlns="http://www.w3.org/2000/svg" version="1.1" width="720px" height="540px" style="shape-rendering:geometricPrecision; text-rendering:geometricPrecision; image-rendering:optimizeQuality; fill-rule:evenodd; clip-rule:evenodd" xmlns:xlink="http://www.w3.org/1999/xlink">
<g><path style="opacity:1" fill="#dbdbdb" d="M 0.5,-0.5 C 2.5,-0.5 4.5,-0.5 6.5,-0.5C 123.92,88.056 241.586,176.389 359.5,264.5C 477.414,176.389 595.08,88.056 712.5,-0.5C 714.5,-0.5 716.5,-0.5 718.5,-0.5C 600.351,88.8033 482.017,177.97 363.5,267C 482.044,356.383 600.71,445.55 719.5,534.5C 719.5,536.167 719.5,537.833 719.5,539.5C 719.167,539.5 718.833,539.5 718.5,539.5C 599.081,449.277 479.414,359.277 359.5,269.5C 239.586,359.277 119.919,449.277 0.5,539.5C 0.166667,539.5 -0.166667,539.5 -0.5,539.5C -0.5,537.833 -0.5,536.167 -0.5,534.5C 118.29,445.55 236.956,356.383 355.5,267C 236.983,177.97 118.649,88.8033 0.5,-0.5 Z"/></g>
<g><path style="opacity:1" fill="#f4f4f4" d="M 6.5,-0.5 C 241.833,-0.5 477.167,-0.5 712.5,-0.5C 595.08,88.056 477.414,176.389 359.5,264.5C 241.586,176.389 123.92,88.056 6.5,-0.5 Z"/></g>
<g><path style="opacity:1" fill="#f4f4f4" d="M -0.5,-0.5 C -0.166667,-0.5 0.166667,-0.5 0.5,-0.5C 118.649,88.8033 236.983,177.97 355.5,267C 236.956,356.383 118.29,445.55 -0.5,534.5C -0.5,356.167 -0.5,177.833 -0.5,-0.5 Z"/></g>
<g><path style="opacity:1" fill="#f4f4f4" d="M 718.5,-0.5 C 718.833,-0.5 719.167,-0.5 719.5,-0.5C 719.5,177.833 719.5,356.167 719.5,534.5C 600.71,445.55 482.044,356.383 363.5,267C 482.017,177.97 600.351,88.8033 718.5,-0.5 Z"/></g>
<g><path style="opacity:1" fill="#f4f4f4" d="M 718.5,539.5 C 479.167,539.5 239.833,539.5 0.5,539.5C 119.919,449.277 239.586,359.277 359.5,269.5C 479.414,359.277 599.081,449.277 718.5,539.5 Z"/></g>
</svg>
