<svg width="24" height="24" viewBox="0 0 24 24" fill="none" xmlns="http://www.w3.org/2000/svg">
<path d="M4.68064 8.46C4.44064 8.22 4.32064 7.92 4.32064 7.62C4.32064 7.26 4.44064 6.96 4.68064 6.72L11.0406 0.36C11.2806 0.12 11.5806 0 11.9406 0C12.3006 0 12.6006 0.12 12.8406 0.36L19.2006 6.72C19.6806 7.2 19.6806 7.98 19.2006 8.46C18.9606 8.7 18.6606 8.82 18.3606 8.82C18.0006 8.82 17.7006 8.7 17.4606 8.46L13.2006 4.2V15.3C13.2006 15.96 12.6606 16.56 11.9406 16.56C11.2206 16.56 10.6806 16.02 10.6806 15.3V4.2L6.42064 8.46C5.94064 8.94 5.22064 8.94 4.68064 8.46ZM22.7406 14.46C22.0806 14.46 21.5406 15 21.5406 15.66V20.4C21.5406 21.06 21.0006 21.6 20.3406 21.6H3.60064C2.94064 21.6 2.40064 21.06 2.40064 20.4V15.66C2.40064 15 1.86064 14.46 1.20064 14.46C0.540638 14.46 0.000637828 15 0.000637828 15.66V20.4C-0.0593622 22.38 1.56064 24 3.60064 24H20.3406C22.3206 24 24.0006 22.38 24.0006 20.34V15.6C23.9406 15 23.4006 14.46 22.7406 14.46Z" fill="#444F55"/>
</svg>
